<?xml version="1.0" encoding="UTF-8" standalone="no"?>
<!-- Created with Inkscape (http://www.inkscape.org/) -->

<svg
   xmlns:svg="http://www.w3.org/2000/svg"
   xmlns="http://www.w3.org/2000/svg"
   xmlns:xlink="http://www.w3.org/1999/xlink"
   xmlns:inkscape="http://www.inkscape.org/namespaces/inkscape"
   version="1.1"
   width="246.55357"
   height="175.65018"
   id="svg2">
  <defs
     id="defs4">
    <linearGradient
       id="linearGradient4222">
      <stop
         id="stop4224"
         style="stop-color:#242424;stop-opacity:1"
         offset="0" />
      <stop
         id="stop4226"
         style="stop-color:#acacac;stop-opacity:1"
         offset="1" />
    </linearGradient>
    <linearGradient
       id="linearGradient4171">
      <stop
         id="stop4173"
         style="stop-color:#323232;stop-opacity:1"
         offset="0" />
      <stop
         id="stop4175"
         style="stop-color:#5f5f5f;stop-opacity:1"
         offset="0.16320983" />
      <stop
         id="stop4177"
         style="stop-color:#7a7a7a;stop-opacity:1"
         offset="0.30769494" />
      <stop
         id="stop4181"
         style="stop-color:#f1f1f1;stop-opacity:1"
         offset="1" />
    </linearGradient>
    <linearGradient
       id="linearGradient4149">
      <stop
         id="stop4151"
         style="stop-color:#1d1d1d;stop-opacity:1"
         offset="0" />
      <stop
         id="stop4153"
         style="stop-color:#242424;stop-opacity:1"
         offset="0.38186687" />
      <stop
         id="stop4155"
         style="stop-color:#2b2b2b;stop-opacity:1"
         offset="0.48364377" />
      <stop
         id="stop4157"
         style="stop-color:#5d5d5d;stop-opacity:1"
         offset="0.76633722" />
      <stop
         id="stop4159"
         style="stop-color:#717171;stop-opacity:1"
         offset="0.85344857" />
      <stop
         id="stop4161"
         style="stop-color:#b5b5b5;stop-opacity:1"
         offset="1" />
    </linearGradient>
    <linearGradient
       id="linearGradient4125">
      <stop
         id="stop4127"
         style="stop-color:#484848;stop-opacity:1"
         offset="0" />
      <stop
         id="stop4237"
         style="stop-color:#585858;stop-opacity:1"
         offset="0.45274219" />
      <stop
         id="stop4139"
         style="stop-color:#838383;stop-opacity:1"
         offset="0.70434904" />
      <stop
         id="stop4135"
         style="stop-color:#a2a2a2;stop-opacity:1"
         offset="1" />
    </linearGradient>
    <linearGradient
       id="linearGradient4005">
      <stop
         id="stop4007"
         style="stop-color:#484848;stop-opacity:1"
         offset="0" />
      <stop
         id="stop4248"
         style="stop-color:#666666;stop-opacity:1"
         offset="0.1518186" />
      <stop
         id="stop4246"
         style="stop-color:#959595;stop-opacity:1"
         offset="0.29084048" />
      <stop
         id="stop4013"
         style="stop-color:#b9b9b9;stop-opacity:1"
         offset="0.44568044" />
      <stop
         id="stop4015"
         style="stop-color:#ededed;stop-opacity:1"
         offset="1" />
    </linearGradient>
    <inkscape:path-effect
       effect="spiro"
       id="path-effect3985" />
    <inkscape:path-effect
       effect="spiro"
       id="path-effect3981" />
    <inkscape:path-effect
       effect="spiro"
       id="path-effect3874" />
    <linearGradient
       id="linearGradient3794">
      <stop
         id="stop3796"
         style="stop-color:#323232;stop-opacity:1"
         offset="0" />
      <stop
         id="stop3798"
         style="stop-color:#191919;stop-opacity:0"
         offset="1" />
    </linearGradient>
    <linearGradient
       id="linearGradient3634">
      <stop
         id="stop3636"
         style="stop-color:#b5b5b5;stop-opacity:1"
         offset="0" />
      <stop
         id="stop4189"
         style="stop-color:#565656;stop-opacity:1"
         offset="0.39547437" />
      <stop
         id="stop4187"
         style="stop-color:#262626;stop-opacity:1"
         offset="0.80444187" />
      <stop
         id="stop3638"
         style="stop-color:#020202;stop-opacity:1"
         offset="1" />
    </linearGradient>
    <linearGradient
       id="linearGradient3616">
      <stop
         id="stop3618"
         style="stop-color:#6a6a6a;stop-opacity:1"
         offset="0" />
      <stop
         id="stop3642"
         style="stop-color:#6a6a6a;stop-opacity:1"
         offset="0.20184924" />
      <stop
         id="stop3624"
         style="stop-color:#5f5f5f;stop-opacity:1"
         offset="0.40369847" />
      <stop
         id="stop3620"
         style="stop-color:#090909;stop-opacity:1"
         offset="1" />
    </linearGradient>
    <filter
       color-interpolation-filters="sRGB"
       id="filter3774">
      <feGaussianBlur
         id="feGaussianBlur3776"
         stdDeviation="1.9960737" />
    </filter>
    <linearGradient
       x1="200.10207"
       y1="243.04008"
       x2="194.25"
       y2="225.11218"
       id="linearGradient4089"
       xlink:href="#linearGradient4005"
       gradientUnits="userSpaceOnUse"
       gradientTransform="matrix(1.0084169,0,0,1.0015641,-1.6842354,-0.36431075)" />
    <linearGradient
       x1="306.91071"
       y1="165.26396"
       x2="307.01785"
       y2="197.95145"
       id="linearGradient4100"
       xlink:href="#linearGradient3794"
       gradientUnits="userSpaceOnUse" />
    <linearGradient
       x1="304.10715"
       y1="233.61218"
       x2="304.10715"
       y2="242.10992"
       id="linearGradient4103"
       xlink:href="#linearGradient3616"
       gradientUnits="userSpaceOnUse" />
    <linearGradient
       x1="282"
       y1="234.76219"
       x2="282"
       y2="245.03566"
       id="linearGradient4110"
       xlink:href="#linearGradient3634"
       gradientUnits="userSpaceOnUse"
       gradientTransform="translate(0,0.125)" />
    <linearGradient
       x1="425.77679"
       y1="203.13895"
       x2="151.74159"
       y2="50.620075"
       id="linearGradient4131"
       xlink:href="#linearGradient4125"
       gradientUnits="userSpaceOnUse" />
    <linearGradient
       x1="329.58182"
       y1="170.77792"
       x2="200.88841"
       y2="56.936272"
       id="linearGradient4147"
       xlink:href="#linearGradient4149"
       gradientUnits="userSpaceOnUse" />
    <linearGradient
       x1="281.96237"
       y1="244.41591"
       x2="282"
       y2="229.11218"
       id="linearGradient4169"
       xlink:href="#linearGradient4171"
       gradientUnits="userSpaceOnUse" />
    <linearGradient
       x1="407.64706"
       y1="236.78459"
       x2="407.64706"
       y2="241.89546"
       id="linearGradient4244"
       xlink:href="#linearGradient4222"
       gradientUnits="userSpaceOnUse"
       gradientTransform="translate(-0.59375,0.4375)" />
    <linearGradient
       x1="407.64706"
       y1="236.78459"
       x2="407.64706"
       y2="241.89546"
       id="linearGradient2959"
       xlink:href="#linearGradient4222"
       gradientUnits="userSpaceOnUse"
       gradientTransform="translate(-0.59375,0.4375)" />
    <linearGradient
       x1="200.10207"
       y1="243.04008"
       x2="194.25"
       y2="225.11218"
       id="linearGradient2966"
       xlink:href="#linearGradient4005"
       gradientUnits="userSpaceOnUse"
       gradientTransform="matrix(1.0084169,0,0,1.0015641,-1.6842354,-0.36431075)" />
    <linearGradient
       x1="306.91071"
       y1="165.26396"
       x2="307.01785"
       y2="197.95145"
       id="linearGradient2977"
       xlink:href="#linearGradient3794"
       gradientUnits="userSpaceOnUse" />
    <linearGradient
       x1="304.10715"
       y1="233.61218"
       x2="304.10715"
       y2="242.10992"
       id="linearGradient2980"
       xlink:href="#linearGradient3616"
       gradientUnits="userSpaceOnUse" />
    <linearGradient
       x1="329.58182"
       y1="170.77792"
       x2="200.88841"
       y2="56.936272"
       id="linearGradient2987"
       xlink:href="#linearGradient4149"
       gradientUnits="userSpaceOnUse" />
    <linearGradient
       x1="282"
       y1="234.76219"
       x2="282"
       y2="245.03566"
       id="linearGradient2991"
       xlink:href="#linearGradient3634"
       gradientUnits="userSpaceOnUse"
       gradientTransform="translate(0,0.125)" />
    <linearGradient
       x1="281.96237"
       y1="244.41591"
       x2="282"
       y2="229.11218"
       id="linearGradient2995"
       xlink:href="#linearGradient4171"
       gradientUnits="userSpaceOnUse" />
    <linearGradient
       x1="425.77679"
       y1="203.13895"
       x2="151.74159"
       y2="50.620075"
       id="linearGradient2998"
       xlink:href="#linearGradient4125"
       gradientUnits="userSpaceOnUse" />
  </defs>
  <g
     transform="translate(-179.22321,-68.728249)"
     id="layer1">
    <g
       id="g3028">
      <g
         id="g3934"
         style="fill:#a3a3a3;fill-opacity:1;stroke:#000000;stroke-width:0.05;stroke-miterlimit:4;stroke-opacity:1;stroke-dasharray:none">
        <g
           id="g3925"
           style="fill:#a3a3a3;fill-opacity:1;stroke:#000000;stroke-width:0.05;stroke-miterlimit:4;stroke-opacity:1;stroke-dasharray:none">
          <rect
             width="8.25"
             height="1.5"
             ry="0.22097087"
             x="230.5"
             y="235.73718"
             id="rect3878"
             style="fill:#a3a3a3;fill-opacity:1;stroke:#000000;stroke-width:0.05;stroke-miterlimit:4;stroke-opacity:1;stroke-dasharray:none" />
          <rect
             width="8.25"
             height="1.5"
             ry="0.22097087"
             x="240.5"
             y="235.73718"
             id="rect3902"
             style="fill:#a3a3a3;fill-opacity:1;stroke:#000000;stroke-width:0.05;stroke-miterlimit:4;stroke-opacity:1;stroke-dasharray:none" />
          <rect
             width="8.25"
             height="1.5"
             ry="0.22097087"
             x="360.5"
             y="235.73718"
             id="rect3906"
             style="fill:#a3a3a3;fill-opacity:1;stroke:#000000;stroke-width:0.05;stroke-miterlimit:4;stroke-opacity:1;stroke-dasharray:none" />
          <rect
             width="8.25"
             height="1.5"
             ry="0.22097087"
             x="370.5"
             y="235.73718"
             id="rect3917"
             style="fill:#a3a3a3;fill-opacity:1;stroke:#000000;stroke-width:0.05;stroke-miterlimit:4;stroke-opacity:1;stroke-dasharray:none" />
          <rect
             width="8.25"
             height="1.5"
             ry="0.22097087"
             x="380.5"
             y="235.73718"
             id="rect3919"
             style="fill:#a3a3a3;fill-opacity:1;stroke:#000000;stroke-width:0.05;stroke-miterlimit:4;stroke-opacity:1;stroke-dasharray:none" />
          <rect
             width="8.25"
             height="1.5"
             ry="0.22097087"
             x="390.5"
             y="235.73718"
             id="rect3921"
             style="fill:#a3a3a3;fill-opacity:1;stroke:#000000;stroke-width:0.05;stroke-miterlimit:4;stroke-opacity:1;stroke-dasharray:none" />
          <rect
             width="8.25"
             height="1.5"
             ry="0.22097087"
             x="400.5"
             y="235.73718"
             id="rect3923"
             style="fill:#a3a3a3;fill-opacity:1;stroke:#000000;stroke-width:0.05;stroke-miterlimit:4;stroke-opacity:1;stroke-dasharray:none" />
        </g>
        <rect
           width="8.25"
           height="1.5"
           ry="0.22097087"
           x="360.5"
           y="235.73718"
           id="rect3904"
           style="fill:#a3a3a3;fill-opacity:1;stroke:#000000;stroke-width:0.05;stroke-miterlimit:4;stroke-opacity:1;stroke-dasharray:none" />
      </g>
      <rect
         width="246.42857"
         height="134.28571"
         ry="6.5659914"
         x="179.28571"
         y="68.790749"
         id="rect2818"
         style="fill:url(#linearGradient2998);fill-opacity:1;stroke:#000000;stroke-width:0.1;stroke-miterlimit:4;stroke-opacity:1;stroke-dasharray:none" />
      <rect
         width="183.49422"
         height="7.7781706"
         ry="0.22097087"
         x="228.34003"
         y="236.53773"
         id="rect3834"
         style="fill:url(#linearGradient2995);fill-opacity:1;stroke:#000000;stroke-width:0.05;stroke-miterlimit:4;stroke-opacity:1;stroke-dasharray:none" />
      <rect
         width="6.0267859"
         height="2.2767856"
         ry="0.24554007"
         x="238.48259"
         y="238.96931"
         id="rect3812"
         style="fill:#080808;fill-opacity:1;stroke:#080808;stroke-width:0.2;stroke-miterlimit:4;stroke-opacity:1;stroke-dasharray:none" />
      <rect
         width="123.57142"
         height="9.2857208"
         ry="1.5032525"
         x="242.14284"
         y="234.9872"
         id="rect3596"
         style="fill:url(#linearGradient2991);fill-opacity:1;stroke:#000000;stroke-width:0.05;stroke-miterlimit:4;stroke-opacity:1;stroke-dasharray:none" />
      <rect
         width="129.20177"
         height="70.405602"
         ry="3.4425299"
         x="238.03525"
         y="100.99574"
         id="rect3674"
         style="fill:#111111;fill-opacity:1;stroke:none;filter:url(#filter3774)" />
      <rect
         width="129.20177"
         height="70.405602"
         ry="3.4425299"
         x="238.16151"
         y="100.22233"
         id="rect3592"
         style="fill:url(#linearGradient2987);fill-opacity:1;stroke:#111111;stroke-width:0.1;stroke-miterlimit:4;stroke-opacity:1;stroke-dasharray:none" />
      <rect
         width="35.607883"
         height="8.4600248"
         ry="3.6257262"
         x="286.25198"
         y="160.90256"
         id="rect3670"
         style="fill:#080808;fill-opacity:1;stroke:#111111;stroke-width:0.1;stroke-miterlimit:4;stroke-opacity:1;stroke-dasharray:none" />
      <rect
         width="36.996822"
         height="7.8286748"
         ry="2.9041886"
         x="285.62064"
         y="235.40131"
         id="rect3778"
         style="fill:#080808;fill-opacity:1;stroke:#414141;stroke-width:0.1;stroke-miterlimit:4;stroke-opacity:1;stroke-dasharray:none" />
      <rect
         width="244.10646"
         height="131.93916"
         ry="6.5659914"
         x="180.22813"
         y="69.852676"
         id="rect4239"
         style="fill:none;stroke:#030303;stroke-width:0.05;stroke-linecap:round;stroke-linejoin:bevel;stroke-miterlimit:4;stroke-opacity:1;stroke-dasharray:none" />
      <rect
         width="122.3625"
         height="8.4709244"
         ry="1.3713462"
         x="242.71922"
         y="235.39375"
         id="rect4273"
         style="fill:none;stroke:#090909;stroke-width:0.04955199;stroke-miterlimit:4;stroke-opacity:1;stroke-dasharray:none" />
      <rect
         width="33.214283"
         height="79.642868"
         ry="3.2142792"
         x="287.5"
         y="162.00505"
         id="rect3614"
         style="fill:url(#linearGradient2980);fill-opacity:1;stroke:#000000;stroke-width:0.1;stroke-miterlimit:4;stroke-opacity:1;stroke-dasharray:none" />
      <rect
         width="32.767864"
         height="35.089279"
         ry="3.2142792"
         x="287.67856"
         y="162.36217"
         id="rect3784"
         style="fill:url(#linearGradient2977);fill-opacity:1;stroke:#000000;stroke-opacity:0" />
      <rect
         width="0.79901278"
         height="1.3261862"
         ry="0.21098416"
         x="237.81815"
         y="239.47331"
         id="rect3814"
         style="fill:#080808;fill-opacity:1;stroke:#080808;stroke-width:0.26277363;stroke-miterlimit:4;stroke-opacity:1;stroke-dasharray:none" />
      <rect
         width="3.8448932"
         height="3.1819806"
         ry="0.22097087"
         x="230.14116"
         y="238.72534"
         id="rect3846"
         style="fill:#141414;fill-opacity:1;stroke:#1b1b1b;stroke-width:0.30000001;stroke-miterlimit:4;stroke-opacity:1;stroke-dasharray:none" />
      <g
         transform="translate(-3.1985254,1.6270303)"
         id="g3838">
        <path
           d="m 236.48972,239.17021 a 1.121416,0.86613441 0 1 1 -0.0569,-0.27239"
           transform="matrix(1,0,0,1.2241379,-0.17318722,-54.033367)"
           id="path3818"
           style="fill:#080808;fill-opacity:1;stroke:none" />
        <path
           d="m 235.71875,238.70593 a 0.390625,0.28125 0 1 1 -0.0198,-0.0884"
           transform="matrix(0.88686288,0,0,1.1964186,26.469659,-46.886279)"
           id="path3822"
           style="fill:#0f0f0f;fill-opacity:1;stroke:none" />
      </g>
      <path
         d="m 231.97522,240.32739 c -0.0194,0.53612 0.20946,1.07621 0.60822,1.43509 0.39875,0.35888 0.95988,0.52981 1.491,0.4542 0.5748,-0.0818 1.07546,-0.42793 1.52235,-0.79858 0.44688,-0.37065 0.87248,-0.78127 1.39447,-1.03547 0.44981,-0.21905 0.96028,-0.31186 1.45841,-0.26517"
         id="path3872"
         style="fill:none;stroke:#080808;stroke-width:0.69999999;stroke-linecap:butt;stroke-linejoin:miter;stroke-miterlimit:4;stroke-opacity:1;stroke-dasharray:none" />
      <path
         d="m 232.32031,240.41296 a 0.3203125,0.20703125 0 1 1 -0.0163,-0.0651"
         id="path3876"
         style="fill:none;stroke:#080808;stroke-width:0.69999999;stroke-miterlimit:4;stroke-opacity:1;stroke-dasharray:none" />
      <rect
         width="25.955841"
         height="2.9175873"
         ry="1.2834778"
         x="187.1333"
         y="241.39833"
         id="rect3969"
         style="fill:#363636;fill-opacity:1;stroke:#000000;stroke-width:0.05;stroke-miterlimit:4;stroke-opacity:1;stroke-dasharray:none" />
      <path
         d="m 213.16377,242.62265 c -0.88118,-2.76266 -2.66627,-5.2289 -5.01534,-6.92908 -2.34908,-1.70018 -5.24962,-2.62524 -8.14929,-2.59903 -2.88162,0.026 -5.74726,0.99108 -8.05762,2.71347 -2.31036,1.7224 -4.05342,4.1932 -4.90116,6.94743 l 26.12341,-0.13279"
         id="path3979"
         style="fill:url(#linearGradient2966);fill-opacity:1;stroke:#000000;stroke-width:0.05;stroke-linecap:butt;stroke-linejoin:bevel;stroke-miterlimit:4;stroke-opacity:1;stroke-dasharray:none" />
      <path
         d="m 200,233.40145 0,6.3817"
         id="path3983"
         style="fill:none;stroke:#0f0f0f;stroke-width:0.523;stroke-linecap:round;stroke-linejoin:bevel;stroke-miterlimit:4;stroke-opacity:1;stroke-dasharray:none" />
      <rect
         width="2.4375"
         height="4.625"
         ry="0.5"
         x="198.73706"
         y="232.2126"
         id="rect4017"
         style="fill:#505050;fill-opacity:1;stroke:#000000;stroke-width:0.05;stroke-linecap:round;stroke-linejoin:bevel;stroke-miterlimit:4;stroke-opacity:1;stroke-dasharray:none" />
      <g
         id="text4191"
         style="font-size:8px;font-style:normal;font-variant:normal;font-weight:normal;font-stretch:normal;text-align:start;line-height:125%;writing-mode:lr-tb;text-anchor:start;fill:#aeaeae;fill-opacity:1;stroke:none;font-family:Moltors;-inkscape-font-specification:Moltors">
        <path
           d="m 245.29617,103.23246 1.78195,0 0,3.85714 c 0,1.80451 -1,2.70677 -3,2.70677 l -2.70676,0 0,-1.50376 2.70676,0 c 0.7619,0 1.14286,-0.34085 1.14286,-1.02256 l -0.008,-0.12782 -3.84962,0 0,-3.06015 1.81955,0 0,1.57895 2.11278,0 0,-2.42857"
           id="path3011" />
        <path
           d="m 247.68386,107.6911 0,-1.50375 3.90977,0 0,1.50375 -3.90977,0"
           id="path3013" />
        <path
           d="m 252.19196,104.07456 0,6.44361 1.81203,0 0,-2.51879 2.1203,0 c 0.98245,0 1.47368,-0.49374 1.47369,-1.48121 l 0,-0.97744 c -1e-5,-0.49624 -0.12031,-0.86215 -0.36091,-1.09775 -0.23559,-0.23558 -0.6015,-0.35337 -1.09774,-0.35338 l -3.94737,-0.015 m 3.61654,2.42106 -1.80451,0 0,-0.90978 1.20301,0 c 0.401,1e-5 0.6015,0.20051 0.6015,0.60151 l 0,0.30827"
           id="path3015" />
        <path
           d="m 263.92187,104.08208 -4.20301,0 c -1.0025,10e-6 -1.50376,0.50126 -1.50375,1.50376 l 0,1.50376 c -10e-6,1.80451 1.0025,2.70677 3.00751,2.70677 l 2.69925,0 0,-1.50376 -2.69925,0 c -0.802,0 -1.20301,-0.401 -1.203,-1.20301 l 0,-0.90225 c -10e-6,-0.39599 0.19298,-0.59399 0.57894,-0.59399 l 3.32331,0 0,-1.51128"
           id="path3017" />
      </g>
      <rect
         width="7.9549513"
         height="2.7842329"
         ry="1.3921164"
         x="403.07584"
         y="237.28459"
         id="rect4220"
         style="fill:url(#linearGradient2959);fill-opacity:1;stroke:#808080;stroke-width:0.05;stroke-miterlimit:4;stroke-opacity:1;stroke-dasharray:none" />
      <g
         id="text4191-4"
         style="font-size:2px;font-style:normal;font-variant:normal;font-weight:normal;font-stretch:normal;text-align:start;line-height:125%;writing-mode:lr-tb;text-anchor:start;fill:#aeaeae;fill-opacity:1;stroke:none;font-family:Moltors;-inkscape-font-specification:Bitstream Vera Sans">
        <path
           d="m 405.30062,237.69731 0.44548,0 0,0.96429 c 0,0.45113 -0.25,0.67669 -0.75,0.67669 l -0.67669,0 0,-0.37594 0.67669,0 c 0.19048,0 0.28572,-0.0852 0.28572,-0.25564 l -0.002,-0.0319 -0.96241,0 0,-0.76504 0.45489,0 0,0.39474 0.5282,0 0,-0.60715"
           id="path3020"
           style="fill:#aeaeae;-inkscape-font-specification:Bitstream Vera Sans" />
        <path
           d="m 405.89754,238.81197 0,-0.37594 0.97744,0 0,0.37594 -0.97744,0"
           id="path3022"
           style="fill:#aeaeae;-inkscape-font-specification:Bitstream Vera Sans" />
        <path
           d="m 407.02456,237.90784 0,1.6109 0.45301,0 0,-0.6297 0.53008,0 c 0.24561,0 0.36842,-0.12343 0.36842,-0.3703 l 0,-0.24436 c 0,-0.12406 -0.0301,-0.21554 -0.0902,-0.27444 -0.0589,-0.0589 -0.15037,-0.0883 -0.27443,-0.0883 l -0.98685,-0.004 m 0.90414,0.60526 -0.45113,0 0,-0.22744 0.30075,0 c 0.10025,0 0.15038,0.0501 0.15038,0.15037 l 0,0.0771"
           id="path3024"
           style="fill:#aeaeae;-inkscape-font-specification:Bitstream Vera Sans" />
        <path
           d="m 409.95704,237.90972 -1.05075,0 c -0.25063,0 -0.37594,0.12531 -0.37594,0.37594 l 0,0.37594 c 0,0.45113 0.25063,0.67669 0.75188,0.67669 l 0.67481,0 0,-0.37594 -0.67481,0 c -0.2005,0 -0.30075,-0.10025 -0.30075,-0.30075 l 0,-0.22557 c 0,-0.099 0.0482,-0.14849 0.14473,-0.14849 l 0.83083,0 0,-0.37782"
           id="path3026"
           style="fill:#aeaeae;-inkscape-font-specification:Bitstream Vera Sans" />
      </g>
    </g>
  </g>
</svg>
