<?xml version="1.0" encoding="UTF-8" standalone="no"?>
<!-- Created with Inkscape (http://www.inkscape.org/) -->

<svg
   xmlns:dc="http://purl.org/dc/elements/1.1/"
   xmlns:cc="http://creativecommons.org/ns#"
   xmlns:rdf="http://www.w3.org/1999/02/22-rdf-syntax-ns#"
   xmlns:svg="http://www.w3.org/2000/svg"
   xmlns="http://www.w3.org/2000/svg"
   xmlns:sodipodi="http://sodipodi.sourceforge.net/DTD/sodipodi-0.dtd"
   xmlns:inkscape="http://www.inkscape.org/namespaces/inkscape"
   width="3240"
   height="3240"
   id="svg4512"
   version="1.1"
   inkscape:version="0.47+devel r9306"
   sodipodi:docname="lavender.svg"
   sodipodi:version="0.32"
   inkscape:output_extension="org.inkscape.output.svg.inkscape">
  <defs
     id="defs4514">
    <inkscape:perspective
       sodipodi:type="inkscape:persp3d"
       inkscape:vp_x="0 : 526.18109 : 1"
       inkscape:vp_y="0 : 1000 : 0"
       inkscape:vp_z="744.09448 : 526.18109 : 1"
       inkscape:persp3d-origin="372.04724 : 350.78739 : 1"
       id="perspective4520" />
  </defs>
  <sodipodi:namedview
     id="base"
     pagecolor="#ffffff"
     bordercolor="#666666"
     borderopacity="1.0"
     inkscape:pageopacity="0.0"
     inkscape:pageshadow="2"
     inkscape:zoom="0.11664359"
     inkscape:cx="65.742793"
     inkscape:cy="1968.983"
     inkscape:document-units="px"
     inkscape:current-layer="layer1"
     showgrid="false"
     inkscape:window-width="1245"
     inkscape:window-height="756"
     inkscape:window-x="35"
     inkscape:window-y="0"
     inkscape:window-maximized="0"
     units="cm" />
  <metadata
     id="metadata4517">
    <rdf:RDF>
      <cc:Work
         rdf:about="">
        <dc:format>image/svg+xml</dc:format>
        <dc:type
           rdf:resource="http://purl.org/dc/dcmitype/StillImage" />
        <dc:title />
      </cc:Work>
      <cc:Work
         rdf:about="">
        <dc:format>image/svg+xml</dc:format>
        <dc:type
           rdf:resource="http://purl.org/dc/dcmitype/StillImage" />
      </cc:Work>
      <cc:Work
         rdf:about="">
        <dc:format>image/svg+xml</dc:format>
        <dc:type
           rdf:resource="http://purl.org/dc/dcmitype/StillImage" />
      </cc:Work>
    </rdf:RDF>
  </metadata>
  <g
     inkscape:label="Layer 1"
     inkscape:groupmode="layer"
     id="layer1"
     transform="translate(0,2187.6377)">
    <g
       id="1000"
       transform="matrix(0.99962828,0,0,0.99962828,-8.5699371,28.850815)">
      <rect
         style="fill:#808080;fill-opacity:1;stroke:#4d4d4d;stroke-width:2.10556531;stroke-miterlimit:4;stroke-opacity:1;stroke-dasharray:none"
         id="rect3024"
         width="46.449909"
         height="2251.2029"
         x="1639.3572"
         y="-1260.6688"
         ry="1125.6014" />
      <rect
         y="-2217.3127"
         x="8.5731239"
         height="3241.2048"
         width="3241.2048"
         id="rect2426"
         style="opacity:0.53503185;fill:none;stroke:none" />
      <path
         sodipodi:nodetypes="ccccc"
         id="path3183"
         d="m 1633.647,1002.7201 c -16.2007,-584.99698 24.453,-1599.22662 -12.7035,-2328.0682 l 87.1109,-16.8462 c -19.2949,743.36222 -62.2327,1863.72512 -22.5599,2345.3519 l -51.8475,-0.8103 0,0 z"
         style="fill:#e5d5ff;fill-rule:evenodd;stroke:#b380ff;stroke-width:8.10301113;stroke-linecap:butt;stroke-linejoin:miter;stroke-miterlimit:4;stroke-opacity:1;stroke-dasharray:none"
         inkscape:connector-curvature="0" />
      <g
         transform="matrix(81.030116,0,0,81.030116,63.405409,-84349.147)"
         style="fill:#8d5fd3"
         id="g3682">
        <path
           style="fill:#8d5fd3;fill-opacity:1;fill-rule:evenodd;stroke:#442178;stroke-width:0.02427966;stroke-linecap:butt;stroke-linejoin:miter;stroke-miterlimit:4;stroke-opacity:1;stroke-dasharray:none"
           d="m 19.590947,1027.6593 -1.357376,-1.1685 0.278537,-0.8283 0.90829,0.572 0.170549,1.4248 z"
           id="path3650"
           sodipodi:nodetypes="ccccc"
           inkscape:connector-curvature="0" />
        <path
           style="fill:#8d5fd3;fill-opacity:1;fill-rule:evenodd;stroke:#442178;stroke-width:0.02427966;stroke-linecap:butt;stroke-linejoin:miter;stroke-miterlimit:4;stroke-opacity:1;stroke-dasharray:none"
           d="m 19.04719,1026.6949 c -0.69227,-0.4843 -1.216261,-1.058 -1.078856,-1.9969 l 0.908308,0.5721 0.170548,1.4248 z"
           id="path3652"
           sodipodi:nodetypes="cccc"
           inkscape:connector-curvature="0" />
        <path
           style="fill:#8d5fd3;fill-opacity:1;fill-rule:evenodd;stroke:#442178;stroke-width:0.02427966;stroke-linecap:butt;stroke-linejoin:miter;stroke-miterlimit:4;stroke-opacity:1;stroke-dasharray:none"
           d="m 19.983489,1026.392 c 0.05921,-0.5879 -0.293193,-0.86 0.178622,-1.7821 l -0.77259,-0.4084 -0.264079,1.0405 0.858047,1.15 z"
           id="path3654"
           sodipodi:nodetypes="ccccc"
           inkscape:connector-curvature="0" />
        <path
           style="fill:#8d5fd3;fill-opacity:1;fill-rule:evenodd;stroke:#442178;stroke-width:0.02427966;stroke-linecap:butt;stroke-linejoin:miter;stroke-miterlimit:4;stroke-opacity:1;stroke-dasharray:none"
           d="m 19.800291,1027.6362 0.208223,-1.6379 c -0.302459,-0.7363 -0.789381,-1.0235 -1.250022,-1.3749 0.0284,0.5919 -0.157003,1.1854 0.103816,1.7755 l 0.937983,1.2373 z"
           id="path3656"
           sodipodi:nodetypes="ccccc"
           inkscape:connector-curvature="0" />
        <path
           style="fill:#8d5fd3;fill-opacity:1;fill-rule:evenodd;stroke:#442178;stroke-width:0.02427966;stroke-linecap:butt;stroke-linejoin:miter;stroke-miterlimit:4;stroke-opacity:1;stroke-dasharray:none"
           d="m 19.968508,1027.6149 c 0.202555,-0.561 0.280986,-0.7402 0.608188,-1.6846 -0.171209,-0.2761 -0.231594,-0.7508 -0.649547,-0.5846 -0.676357,0.9323 -0.479203,1.345 0.04136,2.2692 z"
           id="path3658"
           sodipodi:nodetypes="cccc"
           inkscape:connector-curvature="0" />
        <path
           style="fill:#8d5fd3;fill-opacity:1;fill-rule:evenodd;stroke:#442178;stroke-width:0.02427966;stroke-linecap:butt;stroke-linejoin:miter;stroke-miterlimit:4;stroke-opacity:1;stroke-dasharray:none"
           d="m 19.426778,1027.3628 -0.163062,-1.7836 0.776122,-0.4016 0.255012,1.0427 -0.868072,1.1425 z"
           id="path3662"
           sodipodi:nodetypes="ccccc"
           inkscape:connector-curvature="0" />
        <path
           style="fill:#8d5fd3;fill-opacity:1;fill-rule:evenodd;stroke:#442178;stroke-width:0.02427966;stroke-linecap:butt;stroke-linejoin:miter;stroke-miterlimit:4;stroke-opacity:1;stroke-dasharray:none"
           d="m 19.706543,1026.2916 c -0.160781,-0.8294 -0.138464,-1.6061 0.613083,-2.1852 l 0.254989,1.0427 -0.868072,1.1425 z"
           id="path3664"
           sodipodi:nodetypes="cccc"
           inkscape:connector-curvature="0" />
        <path
           style="fill:#8d5fd3;fill-opacity:1;fill-rule:evenodd;stroke:#442178;stroke-width:0.02427966;stroke-linecap:butt;stroke-linejoin:miter;stroke-miterlimit:4;stroke-opacity:1;stroke-dasharray:none"
           d="m 20.590054,1026.725 c 0.451333,-0.3813 0.387277,-0.822 1.367531,-1.1566 l -0.271297,-0.8307 -0.913272,0.5642 -0.182962,1.4231 z"
           id="path3666"
           sodipodi:nodetypes="ccccc"
           inkscape:connector-curvature="0" />
        <path
           style="fill:#8d5fd3;fill-opacity:1;fill-rule:evenodd;stroke:#442178;stroke-width:0.02427966;stroke-linecap:butt;stroke-linejoin:miter;stroke-miterlimit:4;stroke-opacity:1;stroke-dasharray:none"
           d="m 19.593268,1027.4918 1.288489,-1.0323 c 0.294643,-0.7396 0.144409,-1.2846 0.05765,-1.8574 -0.39113,0.4452 -0.937027,0.7428 -1.15993,1.3483 l -0.186208,1.5414 z"
           id="path3668"
           sodipodi:nodetypes="ccccc"
           inkscape:connector-curvature="0" />
        <path
           style="fill:#8d5fd3;fill-opacity:1;fill-rule:evenodd;stroke:#442178;stroke-width:0.02427966;stroke-linecap:butt;stroke-linejoin:miter;stroke-miterlimit:4;stroke-opacity:1;stroke-dasharray:none"
           d="m 19.728969,1027.5935 c 0.535617,-0.2624 0.716657,-0.3367 1.608465,-0.7879 0.0689,-0.3174 0.35563,-0.7006 -0.06034,-0.8717 -1.134347,0.1997 -1.279624,0.6334 -1.54812,1.6596 z"
           id="path3670"
           sodipodi:nodetypes="cccc"
           inkscape:connector-curvature="0" />
      </g>
      <path
         sodipodi:nodetypes="ccccc"
         id="path3696"
         d="m 1658.3722,-1229.2302 -109.9884,-94.6837 22.5699,-67.1172 73.5989,46.3492 13.8196,115.4517 z"
         style="fill:#8d5fd3;fill-opacity:1;fill-rule:evenodd;stroke:#442178;stroke-width:1.9673835;stroke-linecap:butt;stroke-linejoin:miter;stroke-miterlimit:4;stroke-opacity:1;stroke-dasharray:none"
         inkscape:connector-curvature="0" />
      <path
         sodipodi:nodetypes="cccc"
         id="path3698"
         d="m 1631.5259,-1321.0292 c -56.0948,-39.2429 -98.5538,-85.7299 -87.4199,-161.8091 l 73.6003,46.3574 13.8196,115.4517 0,0 z"
         style="fill:#8d5fd3;fill-opacity:1;fill-rule:evenodd;stroke:#442178;stroke-width:1.9673835;stroke-linecap:butt;stroke-linejoin:miter;stroke-miterlimit:4;stroke-opacity:1;stroke-dasharray:none"
         inkscape:connector-curvature="0" />
      <g
         transform="matrix(81.030116,0,0,81.030116,156.41956,-84559.732)"
         id="g3319">
        <path
           style="fill:#e9c6af;fill-rule:evenodd;stroke:#c87137;stroke-width:0.05;stroke-linecap:butt;stroke-linejoin:miter;stroke-miterlimit:4;stroke-opacity:1;stroke-dasharray:none"
           d="m 18.028844,1027.5412 c 0.109247,-0.1197 0.182674,-0.084 0.26753,-0.098 l -0.06582,0.4537 c -0.05287,-0.1251 -0.14348,-0.1548 -0.201707,-0.3557 z"
           id="path4879"
           sodipodi:nodetypes="cccc"
           inkscape:connector-curvature="0" />
        <path
           style="fill:#e9c6af;fill-rule:evenodd;stroke:#c87137;stroke-width:0.05;stroke-linecap:butt;stroke-linejoin:miter;stroke-miterlimit:4;stroke-opacity:1;stroke-dasharray:none"
           d="m 18.597933,1027.8325 c 0.0566,0.1518 -0.0087,0.2009 -0.03496,0.2827 l -0.373635,-0.2656 c 0.135495,0.01 0.203244,-0.057 0.408593,-0.017 z"
           id="path2342"
           sodipodi:nodetypes="cccc"
           inkscape:connector-curvature="0" />
        <path
           style="fill:#e9c6af;fill-rule:evenodd;stroke:#c87137;stroke-width:0.05;stroke-linecap:butt;stroke-linejoin:miter;stroke-miterlimit:4;stroke-opacity:1;stroke-dasharray:none"
           d="m 18.264601,1028.215 c -0.150299,0.061 -0.201003,0 -0.28357,-0.028 l 0.255904,-0.3804 c -0.0066,0.1357 0.06224,0.2017 0.02767,0.408 z"
           id="path2344"
           sodipodi:nodetypes="cccc"
           inkscape:connector-curvature="0" />
        <path
           style="fill:#e9c6af;fill-rule:evenodd;stroke:#c87137;stroke-width:0.05;stroke-linecap:butt;stroke-linejoin:miter;stroke-miterlimit:4;stroke-opacity:1;stroke-dasharray:none"
           d="m 17.869063,1028.0488 c -0.116843,-0.1123 -0.07929,-0.1848 -0.09122,-0.2699 l 0.451927,0.077 c -0.126466,0.05 -0.158419,0.1396 -0.360712,0.1927 z"
           id="path2346"
           sodipodi:nodetypes="cccc"
           inkscape:connector-curvature="0" />
        <path
           style="fill:#ffcc00;fill-rule:evenodd;stroke:#d4aa00;stroke-width:0.04;stroke-linecap:butt;stroke-linejoin:miter;stroke-miterlimit:4;stroke-opacity:1;stroke-dasharray:none"
           d="m 18.217612,15.412449 -0.124494,0.124494 0.110661,0.09683 0.124494,-0.186741 -0.110661,-0.03458 z"
           id="path2348"
           transform="translate(0,1012.3622)"
           inkscape:connector-curvature="0" />
      </g>
      <path
         sodipodi:nodetypes="cccc"
         id="path3704"
         d="m 1675.3768,-1270.3206 c 38.4629,-29.2599 51.6834,-38.0031 115.4945,-87.8771 0.4945,-26.3186 17.2693,-61.2831 -18.4832,-68.357 -87.0386,33.6923 -91.7778,70.4475 -97.0112,156.2341 l -10e-5,0 z"
         style="fill:#8d5fd3;fill-opacity:1;fill-rule:evenodd;stroke:#442178;stroke-width:1.9673835;stroke-linecap:butt;stroke-linejoin:miter;stroke-miterlimit:4;stroke-opacity:1;stroke-dasharray:none"
         inkscape:connector-curvature="0" />
      <path
         sodipodi:nodetypes="ccccc"
         id="path3710"
         d="m 1739.33,-1304.9366 c 36.5715,-30.8968 31.381,-66.6068 110.8111,-93.7195 l -21.9832,-67.3117 -74.0026,45.7172 -14.8253,115.314 z"
         style="fill:#8d5fd3;fill-opacity:1;fill-rule:evenodd;stroke:#442178;stroke-width:1.9673835;stroke-linecap:butt;stroke-linejoin:miter;stroke-miterlimit:4;stroke-opacity:1;stroke-dasharray:none"
         inkscape:connector-curvature="0" />
      <path
         sodipodi:nodetypes="cccc"
         id="path3714"
         d="m 1669.5561,-1234.562 c 43.4011,-21.2623 58.0708,-27.2828 130.3341,-63.8436 5.583,-25.719 28.8168,-56.7697 -4.8893,-70.634 -91.9163,16.1818 -103.6881,51.3245 -125.4444,134.4776 z"
         style="fill:#8d5fd3;fill-opacity:1;fill-rule:evenodd;stroke:#442178;stroke-width:1.9673835;stroke-linecap:butt;stroke-linejoin:miter;stroke-miterlimit:4;stroke-opacity:1;stroke-dasharray:none"
         inkscape:connector-curvature="0" />
      <path
         sodipodi:nodetypes="ccccc"
         id="path3187"
         d="m 1614.1881,-374.6623 -141.0626,-244.28959 82.6417,-109.73908 104.941,132.06288 -46.5201,221.96579 z"
         style="fill:#a17bdb;fill-opacity:1;fill-rule:evenodd;stroke:#7137c8;stroke-width:3.80827594;stroke-linecap:butt;stroke-linejoin:miter;stroke-miterlimit:4;stroke-opacity:1;stroke-dasharray:none"
         inkscape:connector-curvature="0" />
      <path
         sodipodi:nodetypes="ccccc"
         id="path3199"
         d="m 1606.5026,-840.84477 -95.2887,-249.57273 c 15.4886,-80.7708 -60.1813,-142.2565 -20.8417,-187.2525 l 177.8383,222.298 -61.7079,214.52723 z"
         style="fill:#b98aff;fill-opacity:1;fill-rule:evenodd;stroke:#7137c8;stroke-width:3.77725863;stroke-linecap:butt;stroke-linejoin:miter;stroke-miterlimit:4;stroke-opacity:1;stroke-dasharray:none"
         inkscape:connector-curvature="0" />
      <path
         sodipodi:nodetypes="ccccc"
         id="path3195"
         d="m 1583.5033,-743.0252 c -53.5038,-71.76837 -128.1531,-116.35115 -141.0851,-240.27861 l 82.655,-107.94019 104.9577,129.89126 -46.5276,218.32754 z"
         style="fill:#b98aff;fill-opacity:1;fill-rule:evenodd;stroke:#7137c8;stroke-width:3.77725863;stroke-linecap:butt;stroke-linejoin:miter;stroke-miterlimit:4;stroke-opacity:1;stroke-dasharray:none"
         inkscape:connector-curvature="0" />
      <path
         sodipodi:nodetypes="cccc"
         id="path3191"
         d="m 1587.3807,-545.11725 c -77.5671,-106.10894 -125.8648,-216.90951 -58.4301,-348.21881 l 104.9577,129.89127 -46.5276,218.32754 z"
         style="fill:#b98aff;fill-opacity:1;fill-rule:evenodd;stroke:#7137c8;stroke-width:3.77725863;stroke-linecap:butt;stroke-linejoin:miter;stroke-miterlimit:4;stroke-opacity:1;stroke-dasharray:none"
         inkscape:connector-curvature="0" />
      <path
         sodipodi:nodetypes="ccccc"
         id="path3201"
         d="m 1770.3204,-860.66472 75.4475,-250.80438 24.3775,-153.1632 c -54.3717,49.9146 -154.7895,63.6492 -122.2306,181.8721 l 22.4056,222.09548 z"
         style="fill:#bb8dff;fill-opacity:1;fill-rule:evenodd;stroke:#7137c8;stroke-width:3.77725863;stroke-linecap:butt;stroke-linejoin:miter;stroke-miterlimit:4;stroke-opacity:1;stroke-dasharray:none"
         inkscape:connector-curvature="0" />
      <path
         sodipodi:nodetypes="ccccc"
         id="path3197"
         d="m 1736.183,-753.21068 c 57.2122,-74.4829 188.0282,-109.9903 149.3253,-235.24665 l -78.8652,-110.74387 -109.395,126.18822 38.9349,219.8023 z"
         style="fill:#bb8dff;fill-opacity:1;fill-rule:evenodd;stroke:#7137c8;stroke-width:3.77725863;stroke-linecap:butt;stroke-linejoin:miter;stroke-miterlimit:4;stroke-opacity:1;stroke-dasharray:none"
         inkscape:connector-curvature="0" />
      <g
         transform="matrix(81.030116,0,0,81.030116,308.24472,-84351.77)"
         id="g3326">
        <path
           style="fill:#e9c6af;fill-rule:evenodd;stroke:#c87137;stroke-width:0.05;stroke-linecap:butt;stroke-linejoin:miter;stroke-miterlimit:4;stroke-opacity:1;stroke-dasharray:none"
           d="m 18.028844,1027.5412 c 0.109247,-0.1197 0.182674,-0.084 0.26753,-0.098 l -0.06582,0.4537 c -0.05287,-0.1251 -0.14348,-0.1548 -0.201707,-0.3557 z"
           id="path3328"
           sodipodi:nodetypes="cccc"
           inkscape:connector-curvature="0" />
        <path
           style="fill:#e9c6af;fill-rule:evenodd;stroke:#c87137;stroke-width:0.05;stroke-linecap:butt;stroke-linejoin:miter;stroke-miterlimit:4;stroke-opacity:1;stroke-dasharray:none"
           d="m 18.597933,1027.8325 c 0.0566,0.1518 -0.0087,0.2009 -0.03496,0.2827 l -0.373635,-0.2656 c 0.135495,0.01 0.203244,-0.057 0.408593,-0.017 z"
           id="path3330"
           sodipodi:nodetypes="cccc"
           inkscape:connector-curvature="0" />
        <path
           style="fill:#e9c6af;fill-rule:evenodd;stroke:#c87137;stroke-width:0.05;stroke-linecap:butt;stroke-linejoin:miter;stroke-miterlimit:4;stroke-opacity:1;stroke-dasharray:none"
           d="m 18.264601,1028.215 c -0.150299,0.061 -0.201003,0 -0.28357,-0.028 l 0.255904,-0.3804 c -0.0066,0.1357 0.06224,0.2017 0.02767,0.408 z"
           id="path3332"
           sodipodi:nodetypes="cccc"
           inkscape:connector-curvature="0" />
        <path
           style="fill:#e9c6af;fill-rule:evenodd;stroke:#c87137;stroke-width:0.05;stroke-linecap:butt;stroke-linejoin:miter;stroke-miterlimit:4;stroke-opacity:1;stroke-dasharray:none"
           d="m 17.869063,1028.0488 c -0.116843,-0.1123 -0.07929,-0.1848 -0.09122,-0.2699 l 0.451927,0.077 c -0.126466,0.05 -0.158419,0.1396 -0.360712,0.1927 z"
           id="path3334"
           sodipodi:nodetypes="cccc"
           inkscape:connector-curvature="0" />
        <path
           style="fill:#ffcc00;fill-rule:evenodd;stroke:#d4aa00;stroke-width:0.04;stroke-linecap:butt;stroke-linejoin:miter;stroke-miterlimit:4;stroke-opacity:1;stroke-dasharray:none"
           d="m 18.217612,15.412449 -0.124494,0.124494 0.110661,0.09683 0.124494,-0.186741 -0.110661,-0.03458 z"
           id="path3336"
           transform="translate(0,1012.3622)"
           inkscape:connector-curvature="0" />
      </g>
      <path
         sodipodi:nodetypes="ccccc"
         id="path3193"
         d="m 1740.4549,-542.62962 c 38.2775,-83.56636 0.077,-141.34894 115.9043,-253.38929 l -93.2096,-98.96207 -91.1955,139.89849 68.5008,212.45287 z"
         style="fill:#bb8dff;fill-opacity:1;fill-rule:evenodd;stroke:#7137c8;stroke-width:3.77725863;stroke-linecap:butt;stroke-linejoin:miter;stroke-miterlimit:4;stroke-opacity:1;stroke-dasharray:none"
         inkscape:connector-curvature="0" />
      <path
         sodipodi:nodetypes="ccccc"
         id="path2179"
         d="m 1681.636,-771.58831 c 31.0171,-79.23936 115.0642,-170.17135 93.4059,-313.78909 -43.5026,-68.6001 -114.6721,-118.0366 -81.025,-240.0437 -88.5013,123.3279 -74.7821,175.098 -106.9179,258.9642 l 94.537,294.86859 0,0 z"
         style="fill:#bda8ff;fill-opacity:1;fill-rule:evenodd;stroke:#7137c8;stroke-width:3.77725863;stroke-linecap:butt;stroke-linejoin:miter;stroke-miterlimit:4;stroke-opacity:1;stroke-dasharray:none"
         inkscape:connector-curvature="0" />
      <path
         sodipodi:nodetypes="ccccc"
         id="path2177"
         d="m 1647.4576,-670.31688 c 37.4745,-76.10349 69.8526,-131.8279 113.0082,-230.66032 l -97.649,-191.4742 -91.2394,192.81119 75.8802,229.32333 z"
         style="fill:#bda8ff;fill-opacity:1;fill-rule:evenodd;stroke:#7137c8;stroke-width:3.77725863;stroke-linecap:butt;stroke-linejoin:miter;stroke-miterlimit:4;stroke-opacity:1;stroke-dasharray:none"
         inkscape:connector-curvature="0" />
      <path
         sodipodi:nodetypes="ccccc"
         id="path3203"
         d="m 1634.3035,-368.65797 113.0081,-230.66842 c -7.5033,-123.61145 -64.748,-190.38837 -114.8991,-265.26829 -25.5781,88.56591 -82.714,166.60601 -73.9892,266.60528 l 75.8802,229.33143 z"
         style="fill:#a17bdb;fill-opacity:1;fill-rule:evenodd;stroke:#7137c8;stroke-width:3.77725863;stroke-linecap:butt;stroke-linejoin:miter;stroke-miterlimit:4;stroke-opacity:1;stroke-dasharray:none"
         inkscape:connector-curvature="0" />
      <g
         transform="matrix(81.030116,0,0,81.030116,276.46283,-83960.987)"
         id="g3430">
        <path
           style="fill:#e9c6af;fill-rule:evenodd;stroke:#c87137;stroke-width:0.05;stroke-linecap:butt;stroke-linejoin:miter;stroke-miterlimit:4;stroke-opacity:1;stroke-dasharray:none"
           d="m 18.028844,1027.5412 c 0.109247,-0.1197 0.182674,-0.084 0.26753,-0.098 l -0.06582,0.4537 c -0.05287,-0.1251 -0.14348,-0.1548 -0.201707,-0.3557 z"
           id="path3432"
           sodipodi:nodetypes="cccc"
           inkscape:connector-curvature="0" />
        <path
           style="fill:#e9c6af;fill-rule:evenodd;stroke:#c87137;stroke-width:0.05;stroke-linecap:butt;stroke-linejoin:miter;stroke-miterlimit:4;stroke-opacity:1;stroke-dasharray:none"
           d="m 18.597933,1027.8325 c 0.0566,0.1518 -0.0087,0.2009 -0.03496,0.2827 l -0.373635,-0.2656 c 0.135495,0.01 0.203244,-0.057 0.408593,-0.017 z"
           id="path3434"
           sodipodi:nodetypes="cccc"
           inkscape:connector-curvature="0" />
        <path
           style="fill:#e9c6af;fill-rule:evenodd;stroke:#c87137;stroke-width:0.05;stroke-linecap:butt;stroke-linejoin:miter;stroke-miterlimit:4;stroke-opacity:1;stroke-dasharray:none"
           d="m 18.264601,1028.215 c -0.150299,0.061 -0.201003,0 -0.28357,-0.028 l 0.255904,-0.3804 c -0.0066,0.1357 0.06224,0.2017 0.02767,0.408 z"
           id="path3436"
           sodipodi:nodetypes="cccc"
           inkscape:connector-curvature="0" />
        <path
           style="fill:#e9c6af;fill-rule:evenodd;stroke:#c87137;stroke-width:0.05;stroke-linecap:butt;stroke-linejoin:miter;stroke-miterlimit:4;stroke-opacity:1;stroke-dasharray:none"
           d="m 17.869063,1028.0488 c -0.116843,-0.1123 -0.07929,-0.1848 -0.09122,-0.2699 l 0.451927,0.077 c -0.126466,0.05 -0.158419,0.1396 -0.360712,0.1927 z"
           id="path3438"
           sodipodi:nodetypes="cccc"
           inkscape:connector-curvature="0" />
        <path
           style="fill:#ffcc00;fill-rule:evenodd;stroke:#d4aa00;stroke-width:0.04;stroke-linecap:butt;stroke-linejoin:miter;stroke-miterlimit:4;stroke-opacity:1;stroke-dasharray:none"
           d="m 18.217612,15.412449 -0.124494,0.124494 0.110661,0.09683 0.124494,-0.186741 -0.110661,-0.03458 z"
           id="path3440"
           transform="translate(0,1012.3622)"
           inkscape:connector-curvature="0" />
      </g>
      <path
         sodipodi:nodetypes="cccc"
         id="path3189"
         d="m 1674.386,-363.34239 c 58.0259,-72.4004 78.5883,-94.85385 174.2441,-217.42811 -11.3257,-49.25821 3.6569,-122.18531 -66.2347,-118.73343 -146.4528,103.24858 -138.1786,173.93115 -108.0094,336.16154 z"
         style="fill:#a17bdb;fill-opacity:1;fill-rule:evenodd;stroke:#7137c8;stroke-width:3.77725863;stroke-linecap:butt;stroke-linejoin:miter;stroke-miterlimit:4;stroke-opacity:1;stroke-dasharray:none"
         inkscape:connector-curvature="0" />
      <path
         sodipodi:nodetypes="ccccc"
         id="path3718"
         d="m 1658.3722,-1366.6897 -109.9884,-94.6837 22.5699,-67.1172 73.5989,46.3492 13.8196,115.4517 z"
         style="fill:#8d5fd3;fill-opacity:1;fill-rule:evenodd;stroke:#442178;stroke-width:1.9673835;stroke-linecap:butt;stroke-linejoin:miter;stroke-miterlimit:4;stroke-opacity:1;stroke-dasharray:none"
         inkscape:connector-curvature="0" />
      <path
         sodipodi:nodetypes="cccc"
         id="path3720"
         d="m 1641.6765,-1436.1325 c -56.0947,-39.2429 -117.6084,-89.0926 -106.4745,-165.1718 l 73.6003,46.3574 32.8742,118.8144 0,0 z"
         style="fill:#8d5fd3;fill-opacity:1;fill-rule:evenodd;stroke:#442178;stroke-width:1.9673835;stroke-linecap:butt;stroke-linejoin:miter;stroke-miterlimit:4;stroke-opacity:1;stroke-dasharray:none"
         inkscape:connector-curvature="0" />
      <path
         sodipodi:nodetypes="ccccc"
         id="path3722"
         d="m 1690.1799,-1469.3792 c 4.7978,-47.6376 -23.7574,-69.6858 14.4738,-144.4037 l -62.6031,-33.0927 -21.3983,84.3118 69.5276,93.1846 z"
         style="fill:#8d5fd3;fill-opacity:1;fill-rule:evenodd;stroke:#442178;stroke-width:1.9673835;stroke-linecap:butt;stroke-linejoin:miter;stroke-miterlimit:4;stroke-opacity:1;stroke-dasharray:none"
         inkscape:connector-curvature="0" />
      <path
         sodipodi:nodetypes="cccc"
         id="path3726"
         d="m 1668.19,-1394.0293 c 16.4131,-45.4579 22.7684,-59.9784 49.2816,-136.5033 -13.8731,-22.3724 -18.7661,-60.8374 -52.6329,-47.3702 -54.8053,75.5444 -38.8299,108.9855 3.3514,183.8735 l -10e-5,0 z"
         style="fill:#8d5fd3;fill-opacity:1;fill-rule:evenodd;stroke:#442178;stroke-width:1.9673835;stroke-linecap:butt;stroke-linejoin:miter;stroke-miterlimit:4;stroke-opacity:1;stroke-dasharray:none"
         inkscape:connector-curvature="0" />
      <path
         sodipodi:nodetypes="cccc"
         id="path3730"
         d="m 1667.7389,-1477.5146 c -13.0281,-67.2063 -11.2197,-130.1424 49.6782,-177.067 l 20.6619,84.4901 -70.3401,92.5769 z"
         style="fill:#8d5fd3;fill-opacity:1;fill-rule:evenodd;stroke:#442178;stroke-width:1.9673835;stroke-linecap:butt;stroke-linejoin:miter;stroke-miterlimit:4;stroke-opacity:1;stroke-dasharray:none"
         inkscape:connector-curvature="0" />
      <path
         sodipodi:nodetypes="ccccc"
         id="path3732"
         d="m 1739.33,-1442.3961 c 36.5715,-30.8968 31.381,-66.6068 110.8111,-93.7195 l -21.9832,-67.3117 -74.0026,45.7172 -14.8253,115.314 z"
         style="fill:#8d5fd3;fill-opacity:1;fill-rule:evenodd;stroke:#442178;stroke-width:1.9673835;stroke-linecap:butt;stroke-linejoin:miter;stroke-miterlimit:4;stroke-opacity:1;stroke-dasharray:none"
         inkscape:connector-curvature="0" />
      <path
         sodipodi:nodetypes="cccc"
         id="path3736"
         d="m 1669.5561,-1372.0215 c 43.4011,-21.2623 58.0708,-27.2828 130.3341,-63.8436 5.583,-25.719 28.8168,-56.7697 -4.8893,-70.6339 -91.9163,16.1817 -103.6881,51.3244 -125.4444,134.4775 z"
         style="fill:#8d5fd3;fill-opacity:1;fill-rule:evenodd;stroke:#442178;stroke-width:1.9673835;stroke-linecap:butt;stroke-linejoin:miter;stroke-miterlimit:4;stroke-opacity:1;stroke-dasharray:none"
         inkscape:connector-curvature="0" />
      <path
         sodipodi:nodetypes="ccccc"
         id="path3734"
         d="m 1687.6467,-1362.4518 104.4064,-83.6474 c 23.875,-59.9299 11.7015,-104.0913 4.6714,-150.5053 -31.6934,36.0746 -75.9274,60.1891 -93.9893,109.2529 l -15.0885,124.8998 0,0 z"
         style="fill:#8d5fd3;fill-opacity:1;fill-rule:evenodd;stroke:#442178;stroke-width:1.9673835;stroke-linecap:butt;stroke-linejoin:miter;stroke-miterlimit:4;stroke-opacity:1;stroke-dasharray:none"
         inkscape:connector-curvature="0" />
      <g
         transform="matrix(81.030116,0,0,81.030116,314.06397,-84701.37)"
         id="g3360">
        <path
           style="fill:#e9c6af;fill-rule:evenodd;stroke:#c87137;stroke-width:0.05;stroke-linecap:butt;stroke-linejoin:miter;stroke-miterlimit:4;stroke-opacity:1;stroke-dasharray:none"
           d="m 18.028844,1027.5412 c 0.109247,-0.1197 0.182674,-0.084 0.26753,-0.098 l -0.06582,0.4537 c -0.05287,-0.1251 -0.14348,-0.1548 -0.201707,-0.3557 z"
           id="path3362"
           sodipodi:nodetypes="cccc"
           inkscape:connector-curvature="0" />
        <path
           style="fill:#e9c6af;fill-rule:evenodd;stroke:#c87137;stroke-width:0.05;stroke-linecap:butt;stroke-linejoin:miter;stroke-miterlimit:4;stroke-opacity:1;stroke-dasharray:none"
           d="m 18.597933,1027.8325 c 0.0566,0.1518 -0.0087,0.2009 -0.03496,0.2827 l -0.373635,-0.2656 c 0.135495,0.01 0.203244,-0.057 0.408593,-0.017 z"
           id="path3364"
           sodipodi:nodetypes="cccc"
           inkscape:connector-curvature="0" />
        <path
           style="fill:#e9c6af;fill-rule:evenodd;stroke:#c87137;stroke-width:0.05;stroke-linecap:butt;stroke-linejoin:miter;stroke-miterlimit:4;stroke-opacity:1;stroke-dasharray:none"
           d="m 18.264601,1028.215 c -0.150299,0.061 -0.201003,0 -0.28357,-0.028 l 0.255904,-0.3804 c -0.0066,0.1357 0.06224,0.2017 0.02767,0.408 z"
           id="path3366"
           sodipodi:nodetypes="cccc"
           inkscape:connector-curvature="0" />
        <path
           style="fill:#e9c6af;fill-rule:evenodd;stroke:#c87137;stroke-width:0.05;stroke-linecap:butt;stroke-linejoin:miter;stroke-miterlimit:4;stroke-opacity:1;stroke-dasharray:none"
           d="m 17.869063,1028.0488 c -0.116843,-0.1123 -0.07929,-0.1848 -0.09122,-0.2699 l 0.451927,0.077 c -0.126466,0.05 -0.158419,0.1396 -0.360712,0.1927 z"
           id="path3368"
           sodipodi:nodetypes="cccc"
           inkscape:connector-curvature="0" />
        <path
           style="fill:#ffcc00;fill-rule:evenodd;stroke:#d4aa00;stroke-width:0.04;stroke-linecap:butt;stroke-linejoin:miter;stroke-miterlimit:4;stroke-opacity:1;stroke-dasharray:none"
           d="m 18.217612,15.412449 -0.124494,0.124494 0.110661,0.09683 0.124494,-0.186741 -0.110661,-0.03458 z"
           id="path3370"
           transform="translate(0,1012.3622)"
           inkscape:connector-curvature="0" />
      </g>
      <path
         style="fill:#bda8ff;fill-opacity:1;fill-rule:evenodd;stroke:#7137c8;stroke-width:3.77725863;stroke-linecap:butt;stroke-linejoin:miter;stroke-miterlimit:4;stroke-opacity:1;stroke-dasharray:none"
         d="m 1647.4855,-1769.3364 113.0081,-230.6603 c 16.0181,-166.7357 -103.888,-200.898 -188.8882,1.2964 l 75.8801,229.3233 z"
         id="path4718"
         sodipodi:nodetypes="cccc"
         inkscape:connector-curvature="0" />
      <path
         sodipodi:nodetypes="ccccc"
         id="path3597"
         d="m 1636.6902,-1499.571 -174.7109,-176.3863 116.2808,-171.8325 104.9577,129.8913 -46.5276,218.3275 z"
         style="fill:#b98aff;fill-opacity:1;fill-rule:evenodd;stroke:#7137c8;stroke-width:3.77725863;stroke-linecap:butt;stroke-linejoin:miter;stroke-miterlimit:4;stroke-opacity:1;stroke-dasharray:none"
         inkscape:connector-curvature="0" />
      <path
         sodipodi:nodetypes="cccc"
         id="path3599"
         d="m 1605.1266,-1668.8915 c -77.5672,-106.1089 -218.8964,-172.0837 -151.4618,-303.393 l 197.9893,85.0655 -46.5275,218.3275 z"
         style="fill:#b98aff;fill-opacity:1;fill-rule:evenodd;stroke:#7137c8;stroke-width:3.77725863;stroke-linecap:butt;stroke-linejoin:miter;stroke-miterlimit:4;stroke-opacity:1;stroke-dasharray:none"
         inkscape:connector-curvature="0" />
      <path
         sodipodi:nodetypes="ccccc"
         id="path3609"
         d="m 1758.2008,-1666.4039 c 38.2774,-83.5744 48.2745,-174.9845 164.1011,-287.0167 l -141.4065,-65.3427 -91.1954,139.9066 68.5008,212.4528 z"
         style="fill:#bb8dff;fill-opacity:1;fill-rule:evenodd;stroke:#7137c8;stroke-width:3.77725863;stroke-linecap:butt;stroke-linejoin:miter;stroke-miterlimit:4;stroke-opacity:1;stroke-dasharray:none"
         inkscape:connector-curvature="0" />
      <g
         transform="matrix(81.030116,0,0,81.030116,140.38256,-85149.898)"
         id="g3408">
        <path
           style="fill:#e9c6af;fill-rule:evenodd;stroke:#c87137;stroke-width:0.05;stroke-linecap:butt;stroke-linejoin:miter;stroke-miterlimit:4;stroke-opacity:1;stroke-dasharray:none"
           d="m 18.028844,1027.5412 c 0.109247,-0.1197 0.182674,-0.084 0.26753,-0.098 l -0.06582,0.4537 c -0.05287,-0.1251 -0.14348,-0.1548 -0.201707,-0.3557 z"
           id="path3410"
           sodipodi:nodetypes="cccc"
           inkscape:connector-curvature="0" />
        <path
           style="fill:#e9c6af;fill-rule:evenodd;stroke:#c87137;stroke-width:0.05;stroke-linecap:butt;stroke-linejoin:miter;stroke-miterlimit:4;stroke-opacity:1;stroke-dasharray:none"
           d="m 18.597933,1027.8325 c 0.0566,0.1518 -0.0087,0.2009 -0.03496,0.2827 l -0.373635,-0.2656 c 0.135495,0.01 0.203244,-0.057 0.408593,-0.017 z"
           id="path3412"
           sodipodi:nodetypes="cccc"
           inkscape:connector-curvature="0" />
        <path
           style="fill:#e9c6af;fill-rule:evenodd;stroke:#c87137;stroke-width:0.05;stroke-linecap:butt;stroke-linejoin:miter;stroke-miterlimit:4;stroke-opacity:1;stroke-dasharray:none"
           d="m 18.264601,1028.215 c -0.150299,0.061 -0.201003,0 -0.28357,-0.028 l 0.255904,-0.3804 c -0.0066,0.1357 0.06224,0.2017 0.02767,0.408 z"
           id="path3414"
           sodipodi:nodetypes="cccc"
           inkscape:connector-curvature="0" />
        <path
           style="fill:#e9c6af;fill-rule:evenodd;stroke:#c87137;stroke-width:0.05;stroke-linecap:butt;stroke-linejoin:miter;stroke-miterlimit:4;stroke-opacity:1;stroke-dasharray:none"
           d="m 17.869063,1028.0488 c -0.116843,-0.1123 -0.07929,-0.1848 -0.09122,-0.2699 l 0.451927,0.077 c -0.126466,0.05 -0.158419,0.1396 -0.360712,0.1927 z"
           id="path3416"
           sodipodi:nodetypes="cccc"
           inkscape:connector-curvature="0" />
        <path
           style="fill:#ffcc00;fill-rule:evenodd;stroke:#d4aa00;stroke-width:0.04;stroke-linecap:butt;stroke-linejoin:miter;stroke-miterlimit:4;stroke-opacity:1;stroke-dasharray:none"
           d="m 18.217612,15.412449 -0.124494,0.124494 0.110661,0.09683 0.124494,-0.186741 -0.110661,-0.03458 z"
           id="path3418"
           transform="translate(0,1012.3622)"
           inkscape:connector-curvature="0" />
      </g>
      <path
         sodipodi:nodetypes="ccccc"
         id="path3615"
         d="m 1668.6701,-1492.4403 113.0083,-230.6603 c -7.5035,-123.6196 -64.7481,-190.3884 -114.8993,-265.2764 -25.5781,88.5659 -82.714,166.6141 -73.9891,266.6134 l 75.8801,229.3233 z"
         style="fill:#bda8ff;fill-opacity:1;fill-rule:evenodd;stroke:#7137c8;stroke-width:3.77725863;stroke-linecap:butt;stroke-linejoin:miter;stroke-miterlimit:4;stroke-opacity:1;stroke-dasharray:none"
         inkscape:connector-curvature="0" />
      <g
         transform="matrix(81.030116,0,0,81.030116,301.08263,-85034.409)"
         id="g3384">
        <path
           style="fill:#e9c6af;fill-rule:evenodd;stroke:#c87137;stroke-width:0.05;stroke-linecap:butt;stroke-linejoin:miter;stroke-miterlimit:4;stroke-opacity:1;stroke-dasharray:none"
           d="m 18.028844,1027.5412 c 0.109247,-0.1197 0.182674,-0.084 0.26753,-0.098 l -0.06582,0.4537 c -0.05287,-0.1251 -0.14348,-0.1548 -0.201707,-0.3557 z"
           id="path3386"
           sodipodi:nodetypes="cccc"
           inkscape:connector-curvature="0" />
        <path
           style="fill:#e9c6af;fill-rule:evenodd;stroke:#c87137;stroke-width:0.05;stroke-linecap:butt;stroke-linejoin:miter;stroke-miterlimit:4;stroke-opacity:1;stroke-dasharray:none"
           d="m 18.597933,1027.8325 c 0.0566,0.1518 -0.0087,0.2009 -0.03496,0.2827 l -0.373635,-0.2656 c 0.135495,0.01 0.203244,-0.057 0.408593,-0.017 z"
           id="path3388"
           sodipodi:nodetypes="cccc"
           inkscape:connector-curvature="0" />
        <path
           style="fill:#e9c6af;fill-rule:evenodd;stroke:#c87137;stroke-width:0.05;stroke-linecap:butt;stroke-linejoin:miter;stroke-miterlimit:4;stroke-opacity:1;stroke-dasharray:none"
           d="m 18.264601,1028.215 c -0.150299,0.061 -0.201003,0 -0.28357,-0.028 l 0.255904,-0.3804 c -0.0066,0.1357 0.06224,0.2017 0.02767,0.408 z"
           id="path3390"
           sodipodi:nodetypes="cccc"
           inkscape:connector-curvature="0" />
        <path
           style="fill:#e9c6af;fill-rule:evenodd;stroke:#c87137;stroke-width:0.05;stroke-linecap:butt;stroke-linejoin:miter;stroke-miterlimit:4;stroke-opacity:1;stroke-dasharray:none"
           d="m 17.986274,1028.2393 c -0.116843,-0.1123 -0.07929,-0.1848 -0.09122,-0.2699 l 0.334716,-0.1133 c -0.126466,0.05 -0.04121,0.3301 -0.243501,0.3832 l 5e-6,0 z"
           id="path3392"
           sodipodi:nodetypes="cccc"
           inkscape:connector-curvature="0" />
        <path
           style="fill:#ffcc00;fill-rule:evenodd;stroke:#d4aa00;stroke-width:0.04;stroke-linecap:butt;stroke-linejoin:miter;stroke-miterlimit:4;stroke-opacity:1;stroke-dasharray:none"
           d="m 18.217612,15.412449 -0.124494,0.124494 0.110661,0.09683 0.124494,-0.186741 -0.110661,-0.03458 z"
           id="path3394"
           transform="translate(0,1012.3622)"
           inkscape:connector-curvature="0" />
      </g>
      <path
         sodipodi:nodetypes="ccc"
         id="path3617"
         d="m 1694.5063,-1487.1167 c 58.0259,-72.4004 144.7189,-76.9218 240.375,-199.5042 -126.671,-203.9204 -265.8205,37.7357 -240.375,199.5042 z"
         style="fill:#bb8dff;fill-opacity:1;fill-rule:evenodd;stroke:#7137c8;stroke-width:3.77725863;stroke-linecap:butt;stroke-linejoin:miter;stroke-miterlimit:4;stroke-opacity:1;stroke-dasharray:none"
         inkscape:connector-curvature="0" />
      <g
         transform="matrix(81.030116,0,0,81.030116,131.87756,-84837.004)"
         id="g3372">
        <path
           style="fill:#e9c6af;fill-rule:evenodd;stroke:#c87137;stroke-width:0.05;stroke-linecap:butt;stroke-linejoin:miter;stroke-miterlimit:4;stroke-opacity:1;stroke-dasharray:none"
           d="m 18.028844,1027.5412 c 0.109247,-0.1197 0.182674,-0.084 0.26753,-0.098 l -0.06582,0.4537 c -0.05287,-0.1251 -0.14348,-0.1548 -0.201707,-0.3557 z"
           id="path3374"
           sodipodi:nodetypes="cccc"
           inkscape:connector-curvature="0" />
        <path
           style="fill:#e9c6af;fill-rule:evenodd;stroke:#c87137;stroke-width:0.05;stroke-linecap:butt;stroke-linejoin:miter;stroke-miterlimit:4;stroke-opacity:1;stroke-dasharray:none"
           d="m 18.597933,1027.8325 c 0.0566,0.1518 -0.0087,0.2009 -0.03496,0.2827 l -0.373635,-0.2656 c 0.135495,0.01 0.203244,-0.057 0.408593,-0.017 z"
           id="path3376"
           sodipodi:nodetypes="cccc"
           inkscape:connector-curvature="0" />
        <path
           style="fill:#e9c6af;fill-rule:evenodd;stroke:#c87137;stroke-width:0.05;stroke-linecap:butt;stroke-linejoin:miter;stroke-miterlimit:4;stroke-opacity:1;stroke-dasharray:none"
           d="m 18.264601,1028.215 c -0.150299,0.061 -0.201003,0 -0.28357,-0.028 l 0.255904,-0.3804 c -0.0066,0.1357 0.06224,0.2017 0.02767,0.408 z"
           id="path3378"
           sodipodi:nodetypes="cccc"
           inkscape:connector-curvature="0" />
        <path
           style="fill:#e9c6af;fill-rule:evenodd;stroke:#c87137;stroke-width:0.05;stroke-linecap:butt;stroke-linejoin:miter;stroke-miterlimit:4;stroke-opacity:1;stroke-dasharray:none"
           d="m 17.869063,1028.0488 c -0.116843,-0.1123 -0.07929,-0.1848 -0.09122,-0.2699 l 0.451927,0.077 c -0.126466,0.05 -0.158419,0.1396 -0.360712,0.1927 z"
           id="path3380"
           sodipodi:nodetypes="cccc"
           inkscape:connector-curvature="0" />
        <path
           style="fill:#ffcc00;fill-rule:evenodd;stroke:#d4aa00;stroke-width:0.04;stroke-linecap:butt;stroke-linejoin:miter;stroke-miterlimit:4;stroke-opacity:1;stroke-dasharray:none"
           d="m 18.217612,15.412449 -0.124494,0.124494 0.110661,0.09683 0.124494,-0.186741 -0.110661,-0.03458 z"
           id="path3382"
           transform="translate(0,1012.3622)"
           inkscape:connector-curvature="0" />
      </g>
      <g
         style="fill:#e3d7f4;stroke:#c6afe9"
         transform="matrix(81.030116,0,0,81.030116,269.12086,-84818.19)"
         id="g3466">
        <path
           style="fill:#e3d7f4;fill-rule:evenodd;stroke:#c6afe9;stroke-width:0.05;stroke-linecap:butt;stroke-linejoin:miter;stroke-miterlimit:4;stroke-opacity:1;stroke-dasharray:none"
           d="m 18.028844,1027.5412 c 0.109247,-0.1197 0.182674,-0.084 0.26753,-0.098 l -0.06582,0.4537 c -0.05287,-0.1251 -0.14348,-0.1548 -0.201707,-0.3557 z"
           id="path3468"
           sodipodi:nodetypes="cccc"
           inkscape:connector-curvature="0" />
        <path
           style="fill:#e3d7f4;fill-rule:evenodd;stroke:#c6afe9;stroke-width:0.05;stroke-linecap:butt;stroke-linejoin:miter;stroke-miterlimit:4;stroke-opacity:1;stroke-dasharray:none"
           d="m 18.394808,1027.5278 c 0.02395,0.064 0.171834,0.079 0.206292,0.1794 0.04696,0.1372 -0.02298,0.3608 -0.03812,0.408 l -0.373635,-0.2656 c 0.135495,0.01 1.19e-4,-0.3617 0.205468,-0.3218 z"
           id="path3470"
           sodipodi:nodetypes="csccc"
           inkscape:connector-curvature="0" />
        <path
           style="fill:#e3d7f4;fill-rule:evenodd;stroke:#c6afe9;stroke-width:0.05;stroke-linecap:butt;stroke-linejoin:miter;stroke-miterlimit:4;stroke-opacity:1;stroke-dasharray:none"
           d="m 18.491163,1028.1681 c -0.0652,0.026 -0.177802,0.1159 -0.29116,0.092 -0.14797,-0.031 -0.117533,-0.1217 -0.218972,-0.1666 l 0.255904,-0.2866 c -0.0066,0.1357 0.288797,0.1548 0.254228,0.3611 z"
           id="path3472"
           sodipodi:nodetypes="csccc"
           inkscape:connector-curvature="0" />
        <path
           style="fill:#e3d7f4;fill-rule:evenodd;stroke:#c6afe9;stroke-width:0.05;stroke-linecap:butt;stroke-linejoin:miter;stroke-miterlimit:4;stroke-opacity:1;stroke-dasharray:none"
           d="m 17.869063,1028.0488 c -0.318457,-0.2019 -0.03346,-0.4804 0.127535,-0.4886 l 0.233177,0.2959 c -0.126466,0.05 -0.158419,0.1396 -0.360712,0.1927 z"
           id="path3474"
           sodipodi:nodetypes="cccc"
           inkscape:connector-curvature="0" />
        <path
           style="fill:#c6afe9;fill-rule:evenodd;stroke:#8d5fd3;stroke-width:0.04;stroke-linecap:butt;stroke-linejoin:miter;stroke-miterlimit:4;stroke-opacity:1;stroke-dasharray:none"
           d="m 18.217612,15.412449 -0.124494,0.124494 0.110661,0.09683 0.124494,-0.186741 -0.110661,-0.03458 z"
           id="path3476"
           transform="translate(0,1012.3622)"
           inkscape:connector-curvature="0" />
      </g>
      <g
         style="fill:#e3d7f4;stroke:#c6afe9"
         transform="matrix(81.030116,0,0,81.030116,121.62077,-84268.705)"
         id="g3478">
        <path
           style="fill:#e3d7f4;fill-rule:evenodd;stroke:#c6afe9;stroke-width:0.05;stroke-linecap:butt;stroke-linejoin:miter;stroke-miterlimit:4;stroke-opacity:1;stroke-dasharray:none"
           d="m 18.028844,1027.5412 c 0.109247,-0.1197 0.182674,-0.084 0.26753,-0.098 l -0.06582,0.4537 c -0.05287,-0.1251 -0.14348,-0.1548 -0.201707,-0.3557 z"
           id="path3480"
           sodipodi:nodetypes="cccc"
           inkscape:connector-curvature="0" />
        <path
           style="fill:#e3d7f4;fill-rule:evenodd;stroke:#c6afe9;stroke-width:0.05;stroke-linecap:butt;stroke-linejoin:miter;stroke-miterlimit:4;stroke-opacity:1;stroke-dasharray:none"
           d="m 18.394808,1027.5278 c 0.02395,0.064 0.171834,0.079 0.206292,0.1794 0.04696,0.1372 -0.02298,0.3608 -0.03812,0.408 l -0.373635,-0.2656 c 0.135495,0.01 1.19e-4,-0.3617 0.205468,-0.3218 z"
           id="path3482"
           sodipodi:nodetypes="csccc"
           inkscape:connector-curvature="0" />
        <path
           style="fill:#e3d7f4;fill-rule:evenodd;stroke:#c6afe9;stroke-width:0.05;stroke-linecap:butt;stroke-linejoin:miter;stroke-miterlimit:4;stroke-opacity:1;stroke-dasharray:none"
           d="m 18.491163,1028.1681 c -0.0652,0.026 -0.177802,0.1159 -0.29116,0.092 -0.14797,-0.031 -0.117533,-0.1217 -0.218972,-0.1666 l 0.255904,-0.2866 c -0.0066,0.1357 0.288797,0.1548 0.254228,0.3611 z"
           id="path3484"
           sodipodi:nodetypes="csccc"
           inkscape:connector-curvature="0" />
        <path
           style="fill:#e3d7f4;fill-rule:evenodd;stroke:#c6afe9;stroke-width:0.05;stroke-linecap:butt;stroke-linejoin:miter;stroke-miterlimit:4;stroke-opacity:1;stroke-dasharray:none"
           d="m 17.869063,1028.0488 c -0.318457,-0.2019 -0.03346,-0.4804 0.127535,-0.4886 l 0.233177,0.2959 c -0.126466,0.05 -0.158419,0.1396 -0.360712,0.1927 z"
           id="path3486"
           sodipodi:nodetypes="cccc"
           inkscape:connector-curvature="0" />
        <path
           style="fill:#c6afe9;fill-rule:evenodd;stroke:#8d5fd3;stroke-width:0.04;stroke-linecap:butt;stroke-linejoin:miter;stroke-miterlimit:4;stroke-opacity:1;stroke-dasharray:none"
           d="m 18.217612,15.412449 -0.124494,0.124494 0.110661,0.09683 0.124494,-0.186741 -0.110661,-0.03458 z"
           id="path3488"
           transform="translate(0,1012.3622)"
           inkscape:connector-curvature="0" />
      </g>
      <rect
         transform="translate(0,1012.3622)"
         y="-9.396759"
         x="-42.103279"
         height="0"
         width="1.1603266"
         id="rect2424"
         style="opacity:0.53503185;fill:#c6afe9;stroke:#8d5fd3;stroke-width:0.04;stroke-miterlimit:4;stroke-dasharray:none" />
      <flowRoot
         style="font-size:56px"
         id="flowRoot2723"
         xml:space="preserve"><flowRegion
           id="flowRegion2725"><rect
             style="font-size:56px"
             y="-11.883173"
             x="-64.978287"
             height="19.891312"
             width="57.519043"
             id="rect2727" /></flowRegion><flowPara
           id="flowPara2729">lavender</flowPara></flowRoot>    </g>
  </g>
  <g
     inkscape:groupmode="layer"
     id="layer2"
     inkscape:label="fgfgf"
     transform="translate(0,3200)" />
</svg>
